<svg width="58" height="96" viewBox="0 0 58 96" fill="none" xmlns="http://www.w3.org/2000/svg">
<path d="M0 50.4742L5.88106 0.882236C5.94074 0.37903 6.36737 0 6.8741 0H43.8884C45.5452 0 46.9044 1.34258 46.9859 2.99743C47.0604 4.51239 47.1856 6.50782 47.3872 8.90722C47.886 14.8454 52.8741 25.2371 52.8741 31.6701C52.8741 35.7171 53.9023 40.6413 54.7458 43.8438C55.1209 45.2679 56.1181 46.4318 56.8665 47.7C58.0868 49.7678 58.067 52.4584 57.946 54.3115C57.8992 55.0296 57.5619 55.6885 57.1357 56.2683C55.1484 58.9712 54.7653 63.1137 54.8447 65.3572C54.8549 65.6479 55.0072 65.9104 55.2091 66.1199C55.9056 66.8428 56.864 68.4106 56.864 70.7629C56.864 72.6574 56.3978 74.0431 55.9434 74.8883C55.6804 75.3775 55.6893 76.0336 56.002 76.4926C56.5884 77.3537 57.0874 78.4688 57.4384 79.4008C57.6729 80.0233 57.1983 80.6598 56.533 80.6598H19.4535C17.9571 80.6598 12.4702 80.6598 12.4702 83.6289C12.4702 86.7772 14.3932 87.8816 15.992 88.7998L16.0127 88.8117C16.2946 88.9736 16.4782 89.2658 16.4915 89.5906C16.6851 94.328 14.2534 95.8407 12.969 96H11.475C10.9227 96 10.5003 95.5424 10.3559 95.0094C10.157 94.2752 9.73335 93.8692 9.27262 93.6646C8.66733 93.3959 8.0297 92.8711 8.02966 92.2088C8.02952 89.9868 7.6247 87.0928 5.98569 87.0928C4.94373 87.0928 4.58194 90.5916 4.50566 93.0213C4.48832 93.5733 4.04155 94.0206 3.48927 94.0206H1C0.447715 94.0206 0 93.5729 0 93.0206V50.4742Z" fill="#B9252C"/>
<path fill-rule="evenodd" clip-rule="evenodd" d="M24.6397 31.9928C24.684 30.8687 24.9147 29.9044 25.3318 29.0999C25.7985 28.1666 26.4152 27.3999 27.1818 26.7999C27.9818 26.1666 28.8985 25.6666 29.9318 25.2999C30.9652 24.9332 32.0318 24.6666 33.1318 24.4999C34.2652 24.2999 35.3985 24.1832 36.5318 24.1499C37.6652 24.0832 38.7318 24.0499 39.7318 24.0499H41.2318V23.3999C41.2318 21.8999 40.7152 20.7832 39.6818 20.0499C38.6485 19.2832 37.3318 18.8999 35.7318 18.8999C34.4652 18.8999 33.2818 19.1332 32.1818 19.5999C31.0818 20.0332 30.1318 20.6332 29.3318 21.3999L26.1818 18.2499C27.5152 16.8832 29.0652 15.8999 30.8318 15.2999C32.6318 14.6999 34.4818 14.3999 36.3818 14.3999C38.0818 14.3999 39.5152 14.5999 40.6818 14.9999C41.8485 15.3666 42.8152 15.8499 43.5818 16.4499C44.3485 17.0499 44.9318 17.7499 45.3318 18.5499C45.7652 19.3166 46.0652 20.0999 46.2318 20.8999C46.4318 21.6999 46.5485 22.4832 46.5818 23.2499C46.6113 23.8979 46.6107 24.4808 46.6101 24.9986L46.61 37.44H46.6116V57.979C46.6116 60.0156 46.361 61.8486 45.8596 63.478C45.3583 65.1386 44.575 66.533 43.5096 67.661C42.4756 68.8203 41.1596 69.7133 39.5616 70.34C37.9636 70.9666 36.068 71.28 33.8746 71.28C31.7753 71.28 29.7856 71.0136 27.9056 70.481C26.0256 69.9483 24.2866 68.977 22.6886 67.567C20.5 65.5 20.2401 64.276 20.2401 64.276C17.1734 64.276 14.3981 63.586 11.9141 62.206C9.46072 60.7954 7.51339 58.848 6.07205 56.364C4.66139 53.88 3.95605 51.0587 3.95605 47.9C3.95605 44.7414 4.66139 41.92 6.07205 39.436C7.51339 36.9214 9.46072 34.974 11.9141 33.594C14.3981 32.1834 17.1734 31.478 20.2401 31.478C21.7895 31.478 23.2561 31.6496 24.6397 31.9928ZM41.2318 35.6999H41.0818C40.4083 36.7621 39.5937 37.6028 38.6383 38.222C39.6621 38.8448 40.5026 39.7121 41.1596 40.824H41.2318V35.6999ZM26.3901 63.2447C27.4207 64.1423 28.4898 64.8467 29.5976 65.358C30.8196 65.922 32.2296 66.204 33.8276 66.204C35.175 66.204 36.303 66.016 37.2116 65.64C38.1516 65.264 38.888 64.747 39.4206 64.089C39.9846 63.431 40.3763 62.632 40.5956 61.692C40.8463 60.7833 40.9716 59.765 40.9716 58.637V56.992H40.8776C40.063 58.0886 38.982 58.919 37.6346 59.483C36.2873 60.0156 34.9086 60.282 33.4986 60.282C32.7913 60.282 32.1113 60.23 31.4587 60.1259C30.9085 60.6454 30.3123 61.1241 29.6701 61.562C28.6467 62.256 27.5534 62.8169 26.3901 63.2447ZM25.3996 56.9786C25.3731 56.9519 25.3468 56.925 25.3206 56.898C24.3493 55.864 23.5973 54.642 23.0646 53.232C22.532 51.822 22.2656 50.318 22.2656 48.72C22.2656 47.0593 22.5163 45.5083 23.0176 44.067C23.519 42.6256 24.2553 41.3723 25.2266 40.307C25.5168 39.9888 25.8237 39.6915 26.1474 39.4152C25.737 39.0339 25.2859 38.7035 24.7941 38.424C23.4754 37.6574 21.9421 37.274 20.1941 37.274C18.3234 37.274 16.6521 37.7187 15.1801 38.608C13.7387 39.4667 12.6041 40.6934 11.7761 42.288C10.9787 43.8827 10.5801 45.7534 10.5801 47.9C10.5801 50.016 10.9787 51.8867 11.7761 53.512C12.6041 55.1067 13.7387 56.3487 15.1801 57.238C16.6521 58.0967 18.3234 58.526 20.1941 58.526C21.9421 58.526 23.4754 58.1427 24.7941 57.376C25.0033 57.2524 25.2051 57.1199 25.3996 56.9786ZM40.8818 28.2499H39.6318C38.7985 28.2499 37.8652 28.2832 36.8318 28.3499C35.7985 28.4166 34.8152 28.5832 33.8818 28.8499C32.9818 29.0832 32.2152 29.4499 31.5818 29.9499C30.9485 30.4166 30.6318 31.0832 30.6318 31.9499C30.6318 32.5166 30.7485 32.9999 30.9818 33.3999C31.2485 33.7666 31.5818 34.0832 31.9818 34.3499C32.3818 34.6166 32.8318 34.8166 33.3318 34.9499C33.8318 35.0499 34.3318 35.0999 34.8318 35.0999C36.8985 35.0999 38.4152 34.6166 39.3818 33.6499C40.3818 32.6499 40.8818 31.2999 40.8818 29.5999V28.2499ZM34.5796 41.952C33.577 41.952 32.6683 42.1243 31.8536 42.469C31.039 42.7823 30.334 43.2366 29.7386 43.832C29.1746 44.396 28.7203 45.101 28.3756 45.947C28.0623 46.7616 27.9056 47.6703 27.9056 48.673C27.9056 49.5816 28.0623 50.4276 28.3756 51.211C28.7203 51.9943 29.1903 52.6836 29.7856 53.279C30.381 53.8743 31.086 54.3443 31.9006 54.689C32.7153 55.0336 33.5926 55.206 34.5326 55.206C35.5666 55.206 36.491 55.0336 37.3056 54.689C38.1516 54.3443 38.8566 53.89 39.4206 53.326C40.016 52.7306 40.4703 52.0256 40.7836 51.211C41.097 50.3963 41.2536 49.519 41.2536 48.579C41.2536 46.605 40.6583 45.007 39.4676 43.785C38.277 42.563 36.6476 41.952 34.5796 41.952Z" fill="white"/>
</svg>
