<svg width="39" height="64" viewBox="0 0 39 64" fill="none" xmlns="http://www.w3.org/2000/svg">
<path d="M0 33.6495L3.95459 0.58749C3.99468 0.252315 4.27897 0 4.61654 0H28.5284C30.1853 0 31.5493 1.34266 31.649 2.99652C31.6995 3.83392 31.7691 4.82027 31.8638 5.93814C32.1992 9.89691 35.5533 16.8247 35.5533 21.1134C35.5533 23.5175 36.1022 26.386 36.6231 28.4929C36.9775 29.9263 38.0324 31.1029 38.5668 32.4793C38.9961 33.5851 39.0301 34.8359 38.9849 35.8301C38.9521 36.5527 38.5962 37.2121 38.2059 37.8211C37.0553 39.6165 36.8281 42.1572 36.8783 43.57C36.8852 43.7647 36.9876 43.9402 37.1233 44.0799C37.5917 44.5618 38.2362 45.607 38.2362 47.1753C38.2362 48.4358 37.9239 49.3584 37.6189 49.9222C37.4417 50.2498 37.4478 50.6908 37.6585 50.998C38.0517 51.5712 38.3863 52.3126 38.6219 52.9326C38.7797 53.3478 38.4632 53.7732 38.0191 53.7732H13.0808C12.0746 53.7732 8.38512 53.7732 8.38512 55.7526C8.38512 57.8515 9.67817 58.5878 10.7532 59.1999L10.768 59.2083C10.9569 59.3159 11.0802 59.5111 11.0892 59.7284C11.2188 62.8856 9.58407 63.8938 8.72053 64H7.71017C7.34198 64 7.06052 63.6949 6.96349 63.3397C6.82871 62.8463 6.54029 62.5752 6.22758 62.4398C5.82262 62.2646 5.39925 61.9147 5.39925 61.4734C5.39927 59.992 5.12717 58.0619 4.02486 58.0619C3.32423 58.0619 3.08096 60.3944 3.02966 62.0142C3.01801 62.3822 2.72017 62.6804 2.35198 62.6804H0.666667C0.298477 62.6804 0 62.3819 0 62.0137V33.6495Z" fill="#B9252C"/>
</svg>
