<svg width="52" height="32" viewBox="0 0 52 32" fill="none" xmlns="http://www.w3.org/2000/svg">
<g opacity="0.2">
<path fill-rule="evenodd" clip-rule="evenodd" d="M11.9993 0C18.6269 0 24 5.42521 24 12.1189C24 21.6186 17.538 27.0382 10.4992 31.8356C9.69935 32.3798 8.70584 31.4699 9.16611 30.6125C10.2705 28.5504 11.0296 26.4288 11.2163 24.2122C4.95352 23.804 0 18.5461 0 12.1189C0 5.42521 5.37309 0 11.9993 0Z" fill="#544848"/>
<path fill-rule="evenodd" clip-rule="evenodd" d="M40.0007 0C46.6269 0 52 5.42521 52 12.1189C52 21.6186 45.5394 27.0382 38.5006 31.8356C37.7008 32.3798 36.7072 31.4699 37.1661 30.6125C38.2705 28.5504 39.031 26.4288 39.2163 24.2122C32.9549 23.804 28 18.5461 28 12.1189C28 5.42521 33.3731 0 40.0007 0Z" fill="#544848"/>
</g>
</svg>
